<?xml version="1.0" encoding="UTF-8"?>
<svg version="1.1" xmlns="http://www.w3.org/2000/svg" width="500" height="500">
<path d="M0 0 C165 0 330 0 500 0 C500 165 500 330 500 500 C335 500 170 500 0 500 C0 335 0 170 0 0 Z " fill="#000000" transform="translate(0,0)"/>
<path d="M0 0 C62.37 0 124.74 0 189 0 C189 20.13 189 40.26 189 61 C174.48 61 159.96 61 145 61 C145 54.4 145 47.8 145 41 C139.72 41 134.44 41 129 41 C129 78.29 129 115.58 129 154 C134.94 154 140.88 154 147 154 C147 167.53 147 181.06 147 195 C112.35 195 77.7 195 42 195 C42 181.47 42 167.94 42 154 C47.61 154 53.22 154 59 154 C59 117.04 59 80.08 59 42 C54.05 42 49.1 42 44 42 C44 48.27 44 54.54 44 61 C29.48 61 14.96 61 0 61 C0 40.87 0 20.74 0 0 Z " fill="#FCFCFC" transform="translate(223,142)"/>
<path d="M0 0 C19.14 0 38.28 0 58 0 C58 23.43 58 46.86 58 71 C69.55 71 81.1 71 93 71 C93.06327112 79.06120973 93.12333248 87.12149675 93.15525055 95.18273926 C93.17095749 98.93834281 93.19187104 102.69373637 93.22631836 106.44921875 C93.2594081 110.08027157 93.27695492 113.71112348 93.28463173 117.34231567 C93.29270583 119.37142577 93.31604109 121.40045735 93.33988953 123.42944336 C93.34302256 141.12928023 89.94636656 158.66613893 79 173 C78.3915625 173.81597656 77.783125 174.63195312 77.15625 175.47265625 C69.9732815 183.89182404 60.10188377 188.94354408 50 193 C49.23171875 193.31710937 48.4634375 193.63421875 47.671875 193.9609375 C36.6879111 198.06975362 24.63363748 198.33298767 13.04101562 198.26074219 C11.00100005 198.25000526 8.96186453 198.26072424 6.921875 198.2734375 C-14.19551241 198.29661429 -33.44090828 193.99335708 -52 184 C-54 182 -54 182 -54.24050903 180.08908081 C-54.23606781 179.31186676 -54.23162659 178.53465271 -54.22705078 177.73388672 C-54.22680908 176.84080811 -54.22656738 175.94772949 -54.22631836 175.02758789 C-54.21608643 174.08778076 -54.20585449 173.14797363 -54.1953125 172.1796875 C-54.19329834 171.31674072 -54.19128418 170.45379395 -54.18920898 169.56469727 C-54.17872856 166.33474427 -54.15080605 163.10486691 -54.125 159.875 C-54.08375 152.65625 -54.0425 145.4375 -54 138 C-37.5 138 -21 138 -4 138 C-3.34 140.97 -2.68 143.94 -2 147 C-0.15306876 149.77039685 1.0312579 151.51562895 4 153 C9.58629229 153.5809744 14.34628222 153.43488693 19 150 C22.15579297 144.24332887 22.44239208 139.32509262 22.43237305 132.84204102 C22.4425647 131.84615463 22.45275635 130.85026825 22.46325684 129.82420349 C22.49331677 126.55071332 22.50264225 123.27751614 22.51171875 120.00390625 C22.52857059 117.72703586 22.54672151 115.45017474 22.56611633 113.17332458 C22.61356738 107.19425352 22.64340859 101.21522007 22.66955566 95.23602295 C22.69938574 89.12927829 22.74590773 83.02266316 22.79101562 76.91601562 C22.87699327 64.94406336 22.94281989 52.97212448 23 41 C15.41 41 7.82 41 0 41 C0 27.47 0 13.94 0 0 Z " fill="#FDFDFD" transform="translate(156,141)"/>
</svg>
